<mxfile host="app.diagrams.net" modified="2024-05-19T12:41:22.537Z" agent="Mozilla/5.0 (Macintosh; Intel Mac OS X 10_15_7) AppleWebKit/537.36 (KHTML, like Gecko) Chrome/125.0.0.0 Safari/537.36" etag="qZiJhVxnjsAIFnysQoaj" version="24.4.4" type="device">
  <diagram name="Page-1" id="dvPHEaU_ksrR1qC9zQlH">
    <mxGraphModel dx="2044" dy="522" grid="1" gridSize="10" guides="1" tooltips="1" connect="1" arrows="1" fold="1" page="1" pageScale="1" pageWidth="850" pageHeight="1100" math="0" shadow="0">
      <root>
        <mxCell id="0" />
        <mxCell id="1" parent="0" />
        <mxCell id="od0xPuyBEN1Qg3Z7ZQ3z-1" value="" style="rounded=0;whiteSpace=wrap;html=1;" vertex="1" parent="1">
          <mxGeometry x="140" y="130" width="60" height="40" as="geometry" />
        </mxCell>
        <mxCell id="od0xPuyBEN1Qg3Z7ZQ3z-2" value="" style="rounded=0;whiteSpace=wrap;html=1;" vertex="1" parent="1">
          <mxGeometry x="10" y="300" width="70" height="40" as="geometry" />
        </mxCell>
        <mxCell id="od0xPuyBEN1Qg3Z7ZQ3z-3" value="" style="rounded=0;whiteSpace=wrap;html=1;" vertex="1" parent="1">
          <mxGeometry x="560" y="120" width="90" height="50" as="geometry" />
        </mxCell>
        <mxCell id="od0xPuyBEN1Qg3Z7ZQ3z-4" value="" style="rounded=0;whiteSpace=wrap;html=1;" vertex="1" parent="1">
          <mxGeometry x="400" y="120" width="120" height="60" as="geometry" />
        </mxCell>
        <mxCell id="od0xPuyBEN1Qg3Z7ZQ3z-5" value="" style="rounded=0;whiteSpace=wrap;html=1;" vertex="1" parent="1">
          <mxGeometry x="240" y="120" width="120" height="60" as="geometry" />
        </mxCell>
        <mxCell id="od0xPuyBEN1Qg3Z7ZQ3z-7" value="" style="rounded=0;whiteSpace=wrap;html=1;" vertex="1" parent="1">
          <mxGeometry x="425" y="295" width="105" height="40" as="geometry" />
        </mxCell>
        <mxCell id="od0xPuyBEN1Qg3Z7ZQ3z-8" value="" style="rounded=0;whiteSpace=wrap;html=1;" vertex="1" parent="1">
          <mxGeometry x="280" y="285" width="120" height="60" as="geometry" />
        </mxCell>
        <mxCell id="od0xPuyBEN1Qg3Z7ZQ3z-9" value="" style="rounded=0;whiteSpace=wrap;html=1;" vertex="1" parent="1">
          <mxGeometry x="120" y="285" width="120" height="60" as="geometry" />
        </mxCell>
        <mxCell id="od0xPuyBEN1Qg3Z7ZQ3z-10" value="" style="ellipse;whiteSpace=wrap;html=1;" vertex="1" parent="1">
          <mxGeometry x="570" y="275" width="120" height="80" as="geometry" />
        </mxCell>
        <mxCell id="od0xPuyBEN1Qg3Z7ZQ3z-11" value="" style="ellipse;whiteSpace=wrap;html=1;" vertex="1" parent="1">
          <mxGeometry x="-150" y="260" width="120" height="80" as="geometry" />
        </mxCell>
        <mxCell id="od0xPuyBEN1Qg3Z7ZQ3z-12" value="" style="triangle;whiteSpace=wrap;html=1;" vertex="1" parent="1">
          <mxGeometry x="730" y="265" width="60" height="80" as="geometry" />
        </mxCell>
        <mxCell id="od0xPuyBEN1Qg3Z7ZQ3z-13" value="" style="ellipse;shape=cloud;whiteSpace=wrap;html=1;" vertex="1" parent="1">
          <mxGeometry x="-310" y="255" width="120" height="80" as="geometry" />
        </mxCell>
      </root>
    </mxGraphModel>
  </diagram>
</mxfile>
